<?xml version="1.0" encoding="UTF-8"?>
<svg width="512" height="427" viewBox="0 0 2458 2048" xml:space="preserve" xmlns="http://www.w3.org/2000/svg">
  <path d="M423.6 1976V64h892.6c197.1 0 356.7 41.3 478.7 123.9s183 209.3 183 380.1c0 189.6-90.1 327.6-270.3 413.9 217.8 80.7 326.7 234.7 326.7 461.8 0 180.2-65.2 314-195.7 401.3s-298.9 131-505.4 131zM871.4 827.1h413.9c163.3 0 245-61.9 245-185.8 0-125.8-81.7-188.7-245-188.7H871.4zm0 760.3h439.3c184 0 276-67.6 276-202.8 0-65.7-24.9-114.9-74.7-147.8-49.8-32.8-113.1-49.3-190.1-49.3H871.4z" style="fill:#fc4128"/>
</svg>
